# xmcd
#
# Track frame offsets: 
#        150
#        18277
#        35564
#        48761
#        64588
#        78885
#        92967
#        114209
#        124696
#        140608
#        156375
#        167487
#        184849
#        201036
#        215043
#        227830
#        240612
#        254134
#        263461
#        283898
#        301905
#        313157
#
# Disc length: 4378 seconds
#
# Revision: 0
# Processed by: cddbd v1.5.1PL0 Copyright (c) Steve Scherf et al.
# Submitted via: ExactAudioCopy v0.95a5
#
DISCID=36111816
DTITLE=Vern Gosdin - Chiseled In Stone
DYEAR=1900
DGENRE=Country
TTITLE0=That Just About Does It
TTITLE1=Take Me Home To Alabama
TTITLE2=I'm Still  Crazy
TTITLE3=Paradise 83
TTITLE4=Do Me A Favor
TTITLE5=Tanqueray
TTITLE6=Alone
TTITLE7=Right In The Wrong Direction
TTITLE8=I'm Only Going Crazy
TTITLE9=Your Not By Yourself
TTITLE10=Set 'Em Up Joe
TTITLE11=Chiseled In Stone
TTITLE12=Do You Believe Me Now
TTITLE13=This Ain't My First Rodeo
TTITLE14=I'm Still Crazy
TTITLE15=Who You Gonna Blame It On This Time
TTITLE16=Is It Raining At Your House
TTITLE17=Tight As A Twin Fiddler
TTITLE18=There Ain't Nothing Wrong (Just Ain't Nothing Right)
TTITLE19=Its' Not Over Yet
TTITLE20=Nobody Calls From Vegas Just To Say Hello
TTITLE21=I Guess I Had Your Leavin' Coming
EXTD=
EXTT0=
EXTT1=
EXTT2=
EXTT3=
EXTT4=
EXTT5=
EXTT6=
EXTT7=
EXTT8=
EXTT9=
EXTT10=
EXTT11=
EXTT12=
EXTT13=
EXTT14=
EXTT15=
EXTT16=
EXTT17=
EXTT18=
EXTT19=
EXTT20=
EXTT21=
PLAYORDER=
